Coordinates
version=1
nRows=12
nColumns=24
inDegrees=yes

Units are S.I. units (second, meters, Newtons, ...)
Angles are in degrees.

endheader
time	pelvis_tilt	pelvis_list	pelvis_rotation	pelvis_tx	pelvis_ty	pelvis_tz	hip_flexion_r	hip_adduction_r	hip_rotation_r	knee_angle_r	ankle_angle_r	subtalar_angle_r	mtp_angle_r	hip_flexion_l	hip_adduction_l	hip_rotation_l	knee_angle_l	ankle_angle_l	subtalar_angle_l	mtp_angle_l	lumbar_extension	lumbar_bending	lumbar_rotation
      1.33500000	      2.01396220	    -10.62577078	      4.41120200	      0.34227598	      0.91032455	      0.03580117	      3.66900191	     15.47652586	     -7.25906410	    -14.41470000	     17.94203433	     -3.28927658	     26.67960492	     19.16630035	     -8.02728163	      7.15090480	    -67.46351907	     17.32560465	     -2.15585439	     28.44662638	    -12.68554288	      9.71340471	     -5.70988620
      1.34000000	      2.20627189	    -10.46495549	      4.48227927	      0.35058544	      0.91144294	      0.03585402	      2.40640188	     15.48187380	     -6.71283089	    -13.52514632	     17.83430469	     -3.73333215	     26.47223184	     19.68358245	     -7.73934447	      7.08210024	    -66.55114236	     17.56123034	     -2.33361195	     28.26417343	    -12.87949645	      9.54415433	     -5.71808294
      1.34500000	      2.34632246	    -10.26324960	      4.60141571	      0.35886791	      0.91240322	      0.03578725	      1.22410438	     15.42605335	     -6.24495495	    -12.67188748	     17.72524901	     -4.23871587	     26.31985116	     20.22790350	     -7.36565244	      7.08539529	    -65.53804792	     17.72166292	     -2.56506683	     28.13605255	    -13.00909153	      9.34144766	     -5.79891775
      1.35000000	      2.52295948	    -10.06655635	      4.68150211	      0.36717890	      0.91335127	      0.03578128	     -0.01043745	     15.37664902	     -5.73476998	    -11.80783258	     17.57404856	     -4.75705118	     26.17567610	     20.67545293	     -7.03913918	      7.01795906	    -64.41113576	     17.86084022	     -2.76944901	     28.01062560	    -13.18562657	      9.13910612	     -5.84305548
      1.35500000	      2.72181635	     -9.89016683	      4.73055938	      0.37547738	      0.91423329	      0.03583021	     -1.27117185	     15.34486383	     -5.19585615	    -10.94210047	     17.40101926	     -5.25374336	     26.04257327	     21.05977683	     -6.76796528	      6.90391395	    -63.19433141	     17.99036125	     -2.94438093	     27.85828481	    -13.39442156	      8.95325729	     -5.85731812
      1.36000000	      2.89696910	     -9.69690955	      4.78485765	      0.38376546	      0.91500195	      0.03585401	     -2.48995350	     15.28318010	     -4.70796683	    -10.10816540	     17.22215373	     -5.75230753	     25.93839341	     21.42883490	     -6.47275363	      6.80535520	    -61.87858747	     18.06895505	     -3.12179739	     27.71064714	    -13.57756258	      8.74926506	     -5.88566365
      1.36500000	      3.07906316	     -9.50843954	      4.81757200	      0.39202548	      0.91568583	      0.03590271	     -3.70475483	     15.21719835	     -4.23369746	     -9.29813279	     17.02969118	     -6.22949766	     25.86620314	     21.74982415	     -6.20291501	      6.68040969	    -60.47199923	     18.12600357	     -3.27046818	     27.56344657	    -13.77677618	      8.54829540	     -5.89005570
      1.37000000	      3.24274839	     -9.32110912	      4.82596856	      0.40028289	      0.91627873	      0.03598125	     -4.88789788	     15.14098865	     -3.78436321	     -8.51608928	     16.83382126	     -6.67509073	     25.82644545	     22.04442364	     -5.95172646	      6.52746364	    -58.96598773	     18.14529306	     -3.41719798	     27.42193125	    -13.95804534	      8.34315221	     -5.88574081
      1.37500000	      3.40517548	     -9.14542188	      4.81252987	      0.40851078	      0.91677279	      0.03608746	     -6.05379207	     15.06561066	     -3.36500227	     -7.76353798	     16.63403772	     -7.07568064	     25.82200499	     22.30187020	     -5.73181958	      6.35206191	    -57.37430436	     18.14231665	     -3.54012522	     27.28690961	    -14.14526406	      8.14759776	     -5.85699509
      1.38000000	      3.55481507	     -8.97616648	      4.76681970	      0.41673597	      0.91718127	      0.03623855	     -7.19201933	     14.98335587	     -2.97336293	     -7.04412210	     16.43144797	     -7.41960558	     25.85396351	     22.52682668	     -5.54232641	      6.13847220	    -55.69087373	     18.11202209	     -3.65211336	     27.15661022	    -14.32344503	      7.95214743	     -5.80384025
      1.38500000	      3.69520520	     -8.81309864	      4.70262150	      0.42491504	      0.91748803	      0.03641039	     -8.29621607	     14.89519224	     -2.62401452	     -6.36701460	     16.24908084	     -7.70962465	     25.90954867	     22.72182990	     -5.37086185	      5.91554790	    -53.91953218	     18.04704034	     -3.74701204	     27.03932693	    -14.49966842	      7.75884002	     -5.72418061
      1.39000000	      3.83570852	     -8.67721167	      4.59969091	      0.43310481	      0.91771690	      0.03665504	     -9.38950824	     14.82196955	     -2.30252622	     -5.71627431	     16.05132711	     -7.90600310	     26.01570657	     22.87385764	     -5.26449781	      5.63048540	    -52.06746801	     17.97860245	     -3.82780859	     26.92558984	    -14.67944248	      7.58617516	     -5.62008508
